# Blender v2.83.3 OBJ File: 'map3.blend'
# www.blender.org
mtllib map3.mtl
o Plane
v -10.000000 0.000000 10.000000
v 10.000000 0.000000 10.000000
v -10.000000 0.000000 -10.000000
v 10.000000 0.000000 -10.000000
v -10.000000 0.000000 -8.181818
v -10.000000 0.000000 -6.363636
v -10.000000 0.000000 -4.545454
v -10.000000 0.000000 -2.727272
v -10.000000 0.000000 -0.909091
v -10.000000 0.000000 0.909091
v -10.000000 0.000000 2.727273
v -10.000000 0.000000 4.545455
v -10.000000 0.000000 6.363637
v -10.000000 0.000000 8.181818
v -8.181818 0.000000 10.000000
v -6.363636 0.000000 10.000000
v -4.545454 0.000000 10.000000
v -2.727272 0.000000 10.000000
v -0.909091 0.000000 10.000000
v 0.909091 0.000000 10.000000
v 2.727273 0.000000 10.000000
v 4.545455 0.000000 10.000000
v 6.363637 0.000000 10.000000
v 8.181818 0.000000 10.000000
v 10.000000 0.000000 8.181818
v 10.000000 0.000000 6.363636
v 10.000000 0.000000 4.545454
v 10.000000 0.000000 2.727272
v 10.000000 0.000000 0.909091
v 10.000000 0.000000 -0.909091
v 10.000000 0.000000 -2.727273
v 10.000000 0.000000 -4.545455
v 10.000000 0.000000 -6.363637
v 10.000000 0.000000 -8.181818
v 8.181818 0.000000 -10.000000
v 6.363636 0.000000 -10.000000
v 4.545454 0.000000 -10.000000
v 2.727272 0.000000 -10.000000
v 0.909091 0.000000 -10.000000
v -0.909091 0.000000 -10.000000
v -2.727273 0.000000 -10.000000
v -4.545455 0.000000 -10.000000
v -6.363637 0.000000 -10.000000
v -8.181818 0.000000 -10.000000
v -8.181818 0.000000 8.181818
v -8.181818 0.000000 6.363636
v -8.181818 0.000000 4.545454
v -8.181818 0.000000 2.727272
v -8.181818 0.000000 0.909091
v -8.181818 0.000000 -0.909091
v -8.181818 0.000000 -2.727273
v -8.181818 0.000000 -4.545455
v -8.181818 0.000000 -6.363637
v -8.181818 0.000000 -8.181818
v -6.363636 0.000000 8.181818
v -6.363636 0.000000 6.363636
v -6.363636 0.000000 4.545454
v -6.363636 0.000000 2.727272
v -6.363636 0.000000 0.909091
v -6.363636 0.000000 -0.909091
v -6.363636 0.000000 -2.727273
v -6.363636 0.000000 -4.545455
v -6.363636 0.000000 -6.363637
v -6.363637 0.000000 -8.181818
v -4.545454 0.000000 8.181818
v -4.545454 0.000000 6.363636
v -4.545454 0.000000 4.545454
v -4.545454 0.000000 2.727272
v -4.545454 0.000000 0.909091
v -4.545454 0.000000 -0.909091
v -4.545454 0.000000 -2.727273
v -4.545454 0.000000 -4.545455
v -4.545455 0.000000 -6.363637
v -4.545455 0.000000 -8.181818
v -2.727272 0.000000 8.181818
v -2.727272 0.000000 6.363636
v -2.727272 0.000000 4.545454
v -2.727272 0.000000 2.727272
v -2.727272 0.000000 0.909091
v -2.727273 0.000000 -0.909091
v -2.727273 0.000000 -2.727273
v -2.727273 0.000000 -4.545455
v -2.727273 0.000000 -6.363637
v -2.727273 0.000000 -8.181818
v -0.909091 0.000000 8.181818
v -0.909091 0.000000 6.363636
v -0.909091 0.000000 4.545454
v -10.000000 1.388406 -2.727272
v -10.000000 1.388406 -4.545454
v -10.000000 1.388406 -6.363636
v -10.000000 1.388406 -8.181818
v -0.909091 0.000000 -4.545455
v -0.909091 0.000000 -6.363637
v -0.909091 0.000000 -8.181818
v 0.909091 0.000000 8.181818
v 0.909091 0.000000 6.363636
v 0.909091 0.000000 4.545454
v 10.000000 1.388406 -10.000000
v -10.000000 1.388406 -10.000000
v 10.000000 1.388406 10.000000
v -10.000000 1.388406 10.000000
v 0.909091 0.000000 -4.545455
v 0.909091 0.000000 -6.363637
v 0.909091 0.000000 -8.181818
v 2.727273 0.000000 8.181818
v 2.727273 0.000000 6.363636
v 2.727273 0.000000 4.545454
v 2.727273 0.000000 2.727272
v 2.727273 0.000000 0.909091
v 2.727273 0.000000 -0.909091
v 2.727273 0.000000 -2.727273
v 2.727273 0.000000 -4.545455
v 2.727273 0.000000 -6.363637
v 2.727273 0.000000 -8.181818
v 4.545455 0.000000 8.181818
v 4.545455 0.000000 6.363636
v 4.545455 0.000000 4.545454
v 4.545455 0.000000 2.727272
v 4.545455 0.000000 0.909091
v 4.545455 0.000000 -0.909091
v 4.545455 0.000000 -2.727273
v 4.545455 0.000000 -4.545455
v 4.545455 0.000000 -6.363637
v 4.545454 0.000000 -8.181818
v 6.363637 0.000000 8.181818
v 6.363637 0.000000 6.363636
v 6.363637 0.000000 4.545454
v 6.363637 0.000000 2.727272
v 6.363637 0.000000 0.909091
v 6.363637 0.000000 -0.909091
v 6.363637 0.000000 -2.727273
v 6.363637 0.000000 -4.545455
v 6.363636 0.000000 -6.363637
v 6.363636 0.000000 -8.181818
v 8.181818 0.000000 8.181818
v 8.181818 0.000000 6.363636
v 8.181818 0.000000 4.545454
v 8.181818 0.000000 2.727272
v 8.181818 0.000000 0.909091
v 8.181818 0.000000 -0.909091
v 8.181818 0.000000 -2.727273
v 8.181818 0.000000 -4.545455
v 8.181818 0.000000 -6.363637
v 8.181818 0.000000 -8.181818
v -2.727272 1.575596 4.545454
v -2.727272 1.575596 2.727272
v -2.727272 1.575596 0.909091
v -2.727273 1.575596 -0.909091
v -2.727273 1.575596 -2.727273
v -2.727273 1.575596 -4.545455
v -0.909091 1.575596 4.545454
v -0.909091 1.575596 2.727272
v -0.909091 1.575596 0.909091
v -0.909091 1.575596 -0.909091
v -0.909091 1.575596 -2.727273
v -0.909091 1.575596 -4.545455
v 0.909091 1.575596 4.545454
v 0.909091 1.575596 2.727272
v 0.909091 1.575596 0.909091
v 0.909091 1.575596 -0.909091
v 0.909091 1.575596 -2.727273
v 0.909091 1.575596 -4.545455
v 2.727273 1.575596 4.545454
v 2.727273 1.575596 2.727272
v 2.727273 1.575596 0.909091
v 2.727273 1.575596 -0.909091
v 2.727273 1.575596 -2.727273
v 2.727273 1.575596 -4.545455
v -10.000000 1.388406 -0.909091
v -10.000000 1.388406 0.909091
v -10.000000 1.388406 2.727273
v -10.000000 1.388406 4.545455
v -10.000000 1.388406 6.363637
v -10.000000 1.388406 8.181818
v -8.181818 1.388406 10.000000
v -6.363636 1.388406 10.000000
v -4.545454 1.388406 10.000000
v -2.727272 1.388406 10.000000
v -0.909091 1.388406 10.000000
v 0.909091 1.388406 10.000000
v 2.727273 1.388406 10.000000
v 4.545455 1.388406 10.000000
v 6.363637 1.388406 10.000000
v 8.181818 1.388406 10.000000
v 10.000000 1.388406 8.181818
v 10.000000 1.388406 6.363636
v 10.000000 1.388406 4.545454
v 10.000000 1.388406 2.727272
v 10.000000 1.388406 0.909091
v 10.000000 1.388406 -0.909091
v 10.000000 1.388406 -2.727273
v 10.000000 1.388406 -4.545455
v 10.000000 1.388406 -6.363637
v 10.000000 1.388406 -8.181818
v 8.181818 1.388406 -10.000000
v 6.363636 1.388406 -10.000000
v 4.545454 1.388406 -10.000000
v 2.727272 1.388406 -10.000000
v 0.909091 1.388406 -10.000000
v -0.909091 1.388406 -10.000000
v -2.727273 1.388406 -10.000000
v -4.545455 1.388406 -10.000000
v -6.363637 1.388406 -10.000000
v -8.181818 1.388406 -10.000000
vt 0.909091 0.909091
vt 1.000000 0.909091
vt 1.000000 1.000000
vt 0.909091 1.000000
vt 0.000000 0.909091
vt 0.090909 0.909091
vt 0.090909 1.000000
vt 0.000000 1.000000
vt 0.181818 0.909091
vt 0.181818 1.000000
vt 0.272727 0.909091
vt 0.272727 1.000000
vt 0.363636 0.909091
vt 0.363636 1.000000
vt 0.454545 0.909091
vt 0.454545 1.000000
vt 0.545455 0.909091
vt 0.545455 1.000000
vt 0.636364 0.909091
vt 0.636364 1.000000
vt 0.727273 0.909091
vt 0.727273 1.000000
vt 0.818182 0.909091
vt 0.818182 1.000000
vt 0.000000 0.000000
vt 0.090909 0.000000
vt 0.090909 0.090909
vt 0.000000 0.090909
vt 0.090909 0.181818
vt 0.000000 0.181818
vt 0.090909 0.272727
vt 0.000000 0.272727
vt 0.090909 0.363636
vt 0.000000 0.363636
vt 0.090909 0.454545
vt 0.000000 0.454545
vt 0.090909 0.545455
vt 0.000000 0.545455
vt 0.090909 0.636364
vt 0.000000 0.636364
vt 0.090909 0.727273
vt 0.000000 0.727273
vt 0.090909 0.818182
vt 0.000000 0.818182
vt 0.181818 0.000000
vt 0.181818 0.090909
vt 0.181818 0.181818
vt 0.181818 0.272727
vt 0.181818 0.363636
vt 0.181818 0.454545
vt 0.181818 0.545455
vt 0.181818 0.636364
vt 0.181818 0.727273
vt 0.181818 0.818182
vt 0.272727 0.000000
vt 0.272727 0.090909
vt 0.272727 0.181818
vt 0.272727 0.272727
vt 0.272727 0.363636
vt 0.272727 0.454545
vt 0.272727 0.545455
vt 0.272727 0.636364
vt 0.272727 0.727273
vt 0.272727 0.818182
vt 0.363636 0.000000
vt 0.363636 0.090909
vt 0.363636 0.181818
vt 0.363636 0.272727
vt 0.363636 0.363636
vt 0.363636 0.454545
vt 0.363636 0.545455
vt 0.363636 0.636364
vt 0.363636 0.727273
vt 0.363636 0.818182
vt 0.454545 0.000000
vt 0.454545 0.090909
vt 0.454545 0.181818
vt 0.454545 0.272727
vt 0.454545 0.727273
vt 0.454545 0.818182
vt 0.545455 0.000000
vt 0.545455 0.090909
vt 0.545455 0.181818
vt 0.545455 0.818182
vt 0.636364 0.000000
vt 0.636364 0.090909
vt 0.636364 0.181818
vt 0.636364 0.272727
vt 0.545455 0.272727
vt 0.545455 0.727273
vt 0.636364 0.727273
vt 0.636364 0.818182
vt 0.727273 0.000000
vt 0.727273 0.090909
vt 0.727273 0.181818
vt 0.727273 0.272727
vt 0.727273 0.363636
vt 0.636364 0.363636
vt 0.727273 0.454545
vt 0.636364 0.454545
vt 0.727273 0.545455
vt 0.636364 0.545455
vt 0.727273 0.636364
vt 0.636364 0.636364
vt 0.727273 0.727273
vt 0.727273 0.818182
vt 0.818182 0.000000
vt 0.818182 0.090909
vt 0.818182 0.181818
vt 0.818182 0.272727
vt 0.818182 0.363636
vt 0.818182 0.454545
vt 0.818182 0.545455
vt 0.818182 0.636364
vt 0.818182 0.727273
vt 0.818182 0.818182
vt 0.909091 0.000000
vt 0.909091 0.090909
vt 0.909091 0.181818
vt 0.909091 0.272727
vt 0.909091 0.363636
vt 0.909091 0.454545
vt 0.909091 0.545455
vt 0.909091 0.636364
vt 0.909091 0.727273
vt 0.909091 0.818182
vt 1.000000 0.000000
vt 1.000000 0.090909
vt 1.000000 0.181818
vt 1.000000 0.272727
vt 1.000000 0.363636
vt 1.000000 0.454545
vt 1.000000 0.545455
vt 1.000000 0.636364
vt 1.000000 0.727273
vt 1.000000 0.818182
vt 0.454545 0.272727
vt 0.363636 0.272727
vt 0.363636 0.636364
vt 0.363636 0.727273
vt 0.636364 0.363636
vt 0.636364 0.272727
vt 0.363636 0.545455
vt 0.545455 0.272727
vt 0.363636 0.454545
vt 0.454545 0.727273
vt 0.363636 0.363636
vt 0.636364 0.727273
vt 0.636364 0.636364
vt 0.545455 0.727273
vt 0.636364 0.545455
vt 0.636364 0.454545
vt 0.454545 0.363636
vt 0.454545 0.454545
vt 0.454545 0.545455
vt 0.454545 0.636364
vt 0.545455 0.363636
vt 0.545455 0.454545
vt 0.545455 0.545455
vt 0.545455 0.636364
vt 1.000000 0.090909
vt 1.000000 0.181818
vt 0.000000 0.272727
vt 0.000000 0.181818
vt 0.545455 1.000000
vt 0.454545 1.000000
vt 1.000000 0.272727
vt 0.000000 0.090909
vt 0.363636 1.000000
vt 0.000000 0.000000
vt 1.000000 0.363636
vt 0.090909 0.000000
vt 0.272727 1.000000
vt 0.909091 0.000000
vt 1.000000 0.000000
vt 1.000000 0.454545
vt 0.181818 0.000000
vt 0.181818 1.000000
vt 1.000000 0.909091
vt 1.000000 1.000000
vt 1.000000 0.545455
vt 0.272727 0.000000
vt 0.090909 1.000000
vt 0.000000 1.000000
vt 1.000000 0.636364
vt 0.363636 0.000000
vt 0.000000 0.909091
vt 1.000000 0.727273
vt 0.454545 0.000000
vt 0.000000 0.818182
vt 1.000000 0.818182
vt 0.545455 0.000000
vt 0.000000 0.727273
vt 0.636364 0.000000
vt 0.000000 0.636364
vt 0.909091 1.000000
vt 0.727273 0.000000
vt 0.000000 0.545455
vt 0.818182 1.000000
vt 0.818182 0.000000
vt 0.000000 0.454545
vt 0.727273 1.000000
vt 0.000000 0.363636
vt 0.636364 1.000000
vn 0.0000 1.0000 0.0000
vn -1.0000 0.0000 0.0000
vn 0.0000 0.0000 1.0000
vn 1.0000 0.0000 0.0000
vn 0.0000 0.7557 0.6549
vn 0.0000 0.0000 -1.0000
vn 0.0000 0.7557 -0.6549
usemtl Material.001
s off
f 144/1/1 34/2/1 4/3/1 35/4/1
f 5/5/1 54/6/1 44/7/1 3/8/1
f 54/6/1 64/9/1 43/10/1 44/7/1
f 64/9/1 74/11/1 42/12/1 43/10/1
f 74/11/1 84/13/1 41/14/1 42/12/1
f 84/13/1 94/15/1 40/16/1 41/14/1
f 94/15/1 104/17/1 39/18/1 40/16/1
f 104/17/1 114/19/1 38/20/1 39/18/1
f 114/19/1 124/21/1 37/22/1 38/20/1
f 124/21/1 134/23/1 36/24/1 37/22/1
f 134/23/1 144/1/1 35/4/1 36/24/1
f 1/25/1 15/26/1 45/27/1 14/28/1
f 14/28/1 45/27/1 46/29/1 13/30/1
f 13/30/1 46/29/1 47/31/1 12/32/1
f 12/32/1 47/31/1 48/33/1 11/34/1
f 11/34/1 48/33/1 49/35/1 10/36/1
f 10/36/1 49/35/1 50/37/1 9/38/1
f 9/38/1 50/37/1 51/39/1 8/40/1
f 8/40/1 51/39/1 52/41/1 7/42/1
f 7/42/1 52/41/1 53/43/1 6/44/1
f 6/44/1 53/43/1 54/6/1 5/5/1
f 15/26/1 16/45/1 55/46/1 45/27/1
f 45/27/1 55/46/1 56/47/1 46/29/1
f 46/29/1 56/47/1 57/48/1 47/31/1
f 47/31/1 57/48/1 58/49/1 48/33/1
f 48/33/1 58/49/1 59/50/1 49/35/1
f 49/35/1 59/50/1 60/51/1 50/37/1
f 50/37/1 60/51/1 61/52/1 51/39/1
f 51/39/1 61/52/1 62/53/1 52/41/1
f 52/41/1 62/53/1 63/54/1 53/43/1
f 53/43/1 63/54/1 64/9/1 54/6/1
f 16/45/1 17/55/1 65/56/1 55/46/1
f 55/46/1 65/56/1 66/57/1 56/47/1
f 56/47/1 66/57/1 67/58/1 57/48/1
f 57/48/1 67/58/1 68/59/1 58/49/1
f 58/49/1 68/59/1 69/60/1 59/50/1
f 59/50/1 69/60/1 70/61/1 60/51/1
f 60/51/1 70/61/1 71/62/1 61/52/1
f 61/52/1 71/62/1 72/63/1 62/53/1
f 62/53/1 72/63/1 73/64/1 63/54/1
f 63/54/1 73/64/1 74/11/1 64/9/1
f 17/55/1 18/65/1 75/66/1 65/56/1
f 65/56/1 75/66/1 76/67/1 66/57/1
f 66/57/1 76/67/1 77/68/1 67/58/1
f 67/58/1 77/68/1 78/69/1 68/59/1
f 68/59/1 78/69/1 79/70/1 69/60/1
f 69/60/1 79/70/1 80/71/1 70/61/1
f 70/61/1 80/71/1 81/72/1 71/62/1
f 71/62/1 81/72/1 82/73/1 72/63/1
f 72/63/1 82/73/1 83/74/1 73/64/1
f 73/64/1 83/74/1 84/13/1 74/11/1
f 18/65/1 19/75/1 85/76/1 75/66/1
f 75/66/1 85/76/1 86/77/1 76/67/1
f 76/67/1 86/77/1 87/78/1 77/68/1
f 82/73/1 92/79/1 93/80/1 83/74/1
f 83/74/1 93/80/1 94/15/1 84/13/1
f 19/75/1 20/81/1 95/82/1 85/76/1
f 85/76/1 95/82/1 96/83/1 86/77/1
f 93/80/1 103/84/1 104/17/1 94/15/1
f 20/81/1 21/85/1 105/86/1 95/82/1
f 95/82/1 105/86/1 106/87/1 96/83/1
f 96/83/1 106/87/1 107/88/1 97/89/1
f 102/90/1 112/91/1 113/92/1 103/84/1
f 103/84/1 113/92/1 114/19/1 104/17/1
f 21/85/1 22/93/1 115/94/1 105/86/1
f 105/86/1 115/94/1 116/95/1 106/87/1
f 106/87/1 116/95/1 117/96/1 107/88/1
f 107/88/1 117/96/1 118/97/1 108/98/1
f 108/98/1 118/97/1 119/99/1 109/100/1
f 109/100/1 119/99/1 120/101/1 110/102/1
f 110/102/1 120/101/1 121/103/1 111/104/1
f 111/104/1 121/103/1 122/105/1 112/91/1
f 112/91/1 122/105/1 123/106/1 113/92/1
f 113/92/1 123/106/1 124/21/1 114/19/1
f 22/93/1 23/107/1 125/108/1 115/94/1
f 115/94/1 125/108/1 126/109/1 116/95/1
f 116/95/1 126/109/1 127/110/1 117/96/1
f 117/96/1 127/110/1 128/111/1 118/97/1
f 118/97/1 128/111/1 129/112/1 119/99/1
f 119/99/1 129/112/1 130/113/1 120/101/1
f 120/101/1 130/113/1 131/114/1 121/103/1
f 121/103/1 131/114/1 132/115/1 122/105/1
f 122/105/1 132/115/1 133/116/1 123/106/1
f 123/106/1 133/116/1 134/23/1 124/21/1
f 23/107/1 24/117/1 135/118/1 125/108/1
f 125/108/1 135/118/1 136/119/1 126/109/1
f 126/109/1 136/119/1 137/120/1 127/110/1
f 127/110/1 137/120/1 138/121/1 128/111/1
f 128/111/1 138/121/1 139/122/1 129/112/1
f 129/112/1 139/122/1 140/123/1 130/113/1
f 130/113/1 140/123/1 141/124/1 131/114/1
f 131/114/1 141/124/1 142/125/1 132/115/1
f 132/115/1 142/125/1 143/126/1 133/116/1
f 133/116/1 143/126/1 144/1/1 134/23/1
f 24/117/1 2/127/1 25/128/1 135/118/1
f 135/118/1 25/128/1 26/129/1 136/119/1
f 136/119/1 26/129/1 27/130/1 137/120/1
f 137/120/1 27/130/1 28/131/1 138/121/1
f 138/121/1 28/131/1 29/132/1 139/122/1
f 139/122/1 29/132/1 30/133/1 140/123/1
f 140/123/1 30/133/1 31/134/1 141/124/1
f 141/124/1 31/134/1 32/135/1 142/125/1
f 142/125/1 32/135/1 33/136/1 143/126/1
f 143/126/1 33/136/1 34/2/1 144/1/1
usemtl Material.002
f 87/78/2 86/77/2 151/137/2
f 77/68/3 87/78/3 151/137/3 145/138/3
f 82/73/2 81/72/2 149/139/2 150/140/2
f 107/88/4 108/98/4 164/141/4 163/142/4
f 81/72/2 80/71/2 148/143/2 149/139/2
f 151/137/5 86/77/5 96/83/5 157/144/5
f 80/71/2 79/70/2 147/145/2 148/143/2
f 97/89/3 107/88/3 163/142/3 157/144/3
f 92/79/6 82/73/6 150/140/6 156/146/6
f 79/70/2 78/69/2 146/147/2 147/145/2
f 111/104/4 112/91/4 168/148/4 167/149/4
f 156/146/7 162/150/7 103/84/7 93/80/7
f 78/69/2 77/68/2 145/138/2 146/147/2
f 112/91/6 102/90/6 162/150/6 168/148/6
f 97/89/4 157/144/4 96/83/4
f 110/102/4 111/104/4 167/149/4 166/151/4
f 109/100/4 110/102/4 166/151/4 165/152/4
f 145/138/1 151/137/1 152/153/1 146/147/1
f 146/147/1 152/153/1 153/154/1 147/145/1
f 147/145/1 153/154/1 154/155/1 148/143/1
f 148/143/1 154/155/1 155/156/1 149/139/1
f 149/139/1 155/156/1 156/146/1 150/140/1
f 151/137/1 157/144/1 158/157/1 152/153/1
f 152/153/1 158/157/1 159/158/1 153/154/1
f 153/154/1 159/158/1 160/159/1 154/155/1
f 154/155/1 160/159/1 161/160/1 155/156/1
f 155/156/1 161/160/1 162/150/1 156/146/1
f 157/144/1 163/142/1 164/141/1 158/157/1
f 158/157/1 164/141/1 165/152/1 159/158/1
f 159/158/1 165/152/1 166/151/1 160/159/1
f 160/159/1 166/151/1 167/149/1 161/160/1
f 161/160/1 167/149/1 168/148/1 162/150/1
f 108/98/4 109/100/4 165/152/4 164/141/4
f 103/84/4 162/150/4 102/90/4
f 93/80/2 92/79/2 156/146/2
usemtl Material.003
f 26/129/2 25/128/2 185/161/2 186/162/2
f 13/30/4 12/32/4 172/163/4 173/164/4
f 40/16/3 39/18/3 199/165/3 200/166/3
f 27/130/2 26/129/2 186/162/2 187/167/2
f 14/28/4 13/30/4 173/164/4 174/168/4
f 41/14/3 40/16/3 200/166/3 201/169/3
f 1/25/4 14/28/4 174/168/4 101/170/4
f 28/131/2 27/130/2 187/167/2 188/171/2
f 15/26/6 1/25/6 101/170/6 175/172/6
f 42/12/3 41/14/3 201/169/3 202/173/3
f 2/127/6 24/117/6 184/174/6 100/175/6
f 29/132/2 28/131/2 188/171/2 189/176/2
f 16/45/6 15/26/6 175/172/6 176/177/6
f 43/10/3 42/12/3 202/173/3 203/178/3
f 4/3/2 34/2/2 194/179/2 98/180/2
f 30/133/2 29/132/2 189/176/2 190/181/2
f 17/55/6 16/45/6 176/177/6 177/182/6
f 44/7/3 43/10/3 203/178/3 204/183/3
f 3/8/3 44/7/3 204/183/3 99/184/3
f 31/134/2 30/133/2 190/181/2 191/185/2
f 18/65/6 17/55/6 177/182/6 178/186/6
f 5/5/4 3/8/4 99/184/4 91/187/4
f 32/135/2 31/134/2 191/185/2 192/188/2
f 19/75/6 18/65/6 178/186/6 179/189/6
f 6/44/4 5/5/4 91/187/4 90/190/4
f 33/136/2 32/135/2 192/188/2 193/191/2
f 20/81/6 19/75/6 179/189/6 180/192/6
f 7/42/4 6/44/4 90/190/4 89/193/4
f 34/2/2 33/136/2 193/191/2 194/179/2
f 21/85/6 20/81/6 180/192/6 181/194/6
f 8/40/4 7/42/4 89/193/4 88/195/4
f 35/4/3 4/3/3 98/180/3 195/196/3
f 22/93/6 21/85/6 181/194/6 182/197/6
f 9/38/4 8/40/4 88/195/4 169/198/4
f 36/24/3 35/4/3 195/196/3 196/199/3
f 23/107/6 22/93/6 182/197/6 183/200/6
f 10/36/4 9/38/4 169/198/4 170/201/4
f 37/22/3 36/24/3 196/199/3 197/202/3
f 24/117/6 23/107/6 183/200/6 184/174/6
f 11/34/4 10/36/4 170/201/4 171/203/4
f 38/20/3 37/22/3 197/202/3 198/204/3
f 25/128/2 2/127/2 100/175/2 185/161/2
f 12/32/4 11/34/4 171/203/4 172/163/4
f 39/18/3 38/20/3 198/204/3 199/165/3
